<?xml version="1.0" encoding="UTF-8" standalone="no"?>
<svg
   xmlns:dc="http://purl.org/dc/elements/1.1/"
   xmlns:cc="http://creativecommons.org/ns#"
   xmlns:rdf="http://www.w3.org/1999/02/22-rdf-syntax-ns#"
   xmlns:svg="http://www.w3.org/2000/svg"
   xmlns="http://www.w3.org/2000/svg"
   xmlns:sodipodi="http://sodipodi.sourceforge.net/DTD/sodipodi-0.dtd"
   xmlns:inkscape="http://www.inkscape.org/namespaces/inkscape"
   inkscape:export-ydpi="391.70001"
   inkscape:export-xdpi="391.70001"
   inkscape:export-filename="C:\Users\Niel\Downloads\practice.png"
   width="316.17099"
   height="210.78065"
   viewBox="0 0 2.1078066 1.4052044"
   version="1.1"
   id="svg133092"
   sodipodi:docname="practice.svg"
   inkscape:version="1.0 (4035a4fb49, 2020-05-01)">
  <metadata
     id="metadata133098">
    <rdf:RDF>
      <cc:Work
         rdf:about="">
        <dc:format>image/svg+xml</dc:format>
        <dc:type
           rdf:resource="http://purl.org/dc/dcmitype/StillImage" />
        <dc:title></dc:title>
      </cc:Work>
    </rdf:RDF>
  </metadata>
  <defs
     id="defs133096" />
  <sodipodi:namedview
     inkscape:document-rotation="0"
     pagecolor="#ffffff"
     bordercolor="#666666"
     borderopacity="1"
     objecttolerance="10"
     gridtolerance="10"
     guidetolerance="10"
     inkscape:pageopacity="0"
     inkscape:pageshadow="2"
     inkscape:window-width="1366"
     inkscape:window-height="705"
     id="namedview133094"
     showgrid="false"
     inkscape:zoom="0.89666667"
     inkscape:cx="249.16435"
     inkscape:cy="228.11286"
     inkscape:window-x="-8"
     inkscape:window-y="-8"
     inkscape:window-maximized="1"
     inkscape:current-layer="svg133092" />
  <rect
     y="0"
     x="-5.5511151e-17"
     fill="#FFF"
     width="2.1078067"
     height="1.4052044"
     id="rect133088"
     style="fill:#008f4c;fill-opacity:1;stroke-width:0.702602" />
  <rect
     y="0"
     x="-5.5511151e-17"
     fill="#F00"
     width="2.1078067"
     height="0.70260221"
     id="rect133090"
     style="fill:#ffd600;fill-opacity:1;stroke-width:0.702602" />
  <g
     style="font-weight:600;font-size:0.377373px;line-height:1.25;font-family:'Bookman Old Style';-inkscape-font-specification:'Bookman Old Style Semi-Bold';fill:#ffffff;stroke-width:0.00943433"
     id="text1174"
     transform="scale(0.93839828,1.0656456)"
     aria-label="LATIHAN">
    <path
       id="path1191"
       style="fill:#ffffff;stroke-width:0.00943433"
       d="m 0.24046149,0.53512678 h 0.12566816 v 0.035563 H 0.3550738 q -0.009213,0 -0.0116086,9.2132e-4 -0.004422,0.001843 -0.006449,0.005712 -0.002027,0.003685 -0.002027,0.0119772 v 0.14685854 q 0,0.008845 7.3706e-4,0.0108716 9.2132e-4,0.002027 0.003501,0.003317 0.00258,0.001106 0.00995,0.001106 0.0246914,0 0.0396168,-0.006449 0.0151097,-0.006449 0.0270868,-0.0206376 0.0121614,-0.0143726 0.0208218,-0.0388797 l 0.0339046,0.0116086 -0.0339046,0.0950803 H 0.24046149 v -0.035563 h 0.0123457 q 0.007555,0 0.0114244,-0.002027 0.00387,-0.002027 0.005528,-0.005344 0.001843,-0.003501 0.001843,-0.0119772 V 0.59169588 q 0,-0.009213 -0.001843,-0.013267 -0.001658,-0.004054 -0.004975,-0.005896 -0.003132,-0.001843 -0.0106873,-0.001843 h -0.0136355 z" />
    <path
       id="path1193"
       style="fill:#ffffff;stroke-width:0.00943433"
       d="m 0.57453243,0.53512678 h 0.0576747 l 0.0772067,0.19845251 q 0.006265,0.0158467 0.0110558,0.019532 0.004975,0.003685 0.0180579,0.003501 v 0.035563 H 0.61691318 v -0.035563 l 0.007371,-1.8427e-4 q 0.0101345,0 0.0141883,-0.00258 0.004054,-0.002764 0.004054,-0.006634 0,-0.003317 -0.003501,-0.0136356 l -0.007555,-0.0234015 h -0.0783123 l -0.009582,0.0259812 q -0.002948,0.008292 -0.002948,0.0108716 0,0.002948 0.002027,0.005344 0.002211,0.002395 0.007002,0.003501 0.003132,7.3706e-4 0.0173208,7.3706e-4 v 0.035563 h -0.0995026 v -0.035563 q 0.009582,0 0.0140041,-0.001658 0.004422,-0.001658 0.007186,-0.004975 0.002948,-0.003317 0.006449,-0.0123457 z m -0.007923,0.13838239 h 0.0514097 l -0.0250599,-0.0707574 z" />
    <path
       id="path1195"
       style="fill:#ffffff;stroke-width:0.00943433"
       d="m 0.77132655,0.52646637 h 0.0243229 l 0.00258,0.00866 h 0.1450159 l 0.003132,-0.00866 h 0.0245071 l 0.0318777,0.0901052 -0.0342731,0.0119772 q -0.0114244,-0.0224802 -0.0163995,-0.029298 -0.009766,-0.0134513 -0.0224802,-0.0211904 -0.009582,-0.005896 -0.0189792,-0.005896 -0.004422,0 -0.006081,0.002211 -0.001658,0.002027 -0.001658,0.009582 v 0.14777986 q 0,0.0130828 9.2132e-4,0.0163995 9.2132e-4,0.003317 0.003132,0.005344 0.002211,0.001843 0.006081,0.00258 0.00387,5.5279e-4 0.0206376,5.5279e-4 v 0.035563 H 0.80836365 v -0.035563 h 0.007555 q 0.01253,0 0.016031,-0.001474 0.003501,-0.001658 0.005344,-0.005528 0.001843,-0.004054 0.001843,-0.0165838 V 0.58192988 q 0,-0.006449 -0.001474,-0.008108 -0.001474,-0.001658 -0.006265,-0.001658 -0.009582,0 -0.0213746,0.007186 -0.0117929,0.007186 -0.0210061,0.0202691 -0.003685,0.005159 -0.0156624,0.0289295 l -0.0337203,-0.0119772 z" />
    <path
       id="path1197"
       style="fill:#ffffff;stroke-width:0.00943433"
       d="m 1.0165822,0.53512678 h 0.1252996 v 0.035563 h -0.011424 q -0.00995,0 -0.013267,0.001843 -0.00313,0.001658 -0.00479,0.005528 -0.00147,0.003685 -0.00147,0.0143726 v 0.14225193 q 0,0.0116086 0.00129,0.0149254 0.00129,0.003317 0.00442,0.004791 0.00387,0.002211 0.011609,0.002211 h 0.013635 v 0.035563 H 1.0165822 v -0.035563 h 0.010134 q 0.010872,0 0.014188,-0.001474 0.00332,-0.001658 0.00479,-0.004975 0.00166,-0.003501 0.00166,-0.0136355 V 0.59372279 q 0,-0.0119772 -0.00166,-0.0156625 -0.00147,-0.00387 -0.00516,-0.005896 -0.00258,-0.001474 -0.01253,-0.001474 h -0.011424 z" />
    <path
       id="path1199"
       style="fill:#ffffff;stroke-width:0.00943433"
       d="m 1.1682316,0.53512678 h 0.1254839 v 0.035563 h -0.011609 q -0.00958,0 -0.013083,0.002027 -0.0035,0.001843 -0.00498,0.005528 -0.00147,0.003501 -0.00147,0.0154782 v 0.0447762 h 0.093606 v -0.048093 q 0,-0.008845 -0.00111,-0.0119772 -0.00147,-0.004422 -0.00498,-0.006081 -0.0035,-0.001658 -0.015478,-0.001658 h -0.00977 v -0.035563 h 0.1258524 v 0.035563 h -0.010503 q -0.010687,0 -0.014188,0.001843 -0.0035,0.001658 -0.00498,0.005159 -0.00129,0.003317 -0.00129,0.016031 V 0.7330265 q 0,0.0128985 0.00166,0.016768 0.00184,0.003685 0.00534,0.005344 0.00369,0.001474 0.016584,0.001474 h 0.00737 v 0.035563 H 1.3248561 v -0.035563 h 0.00829 q 0.011609,0 0.015662,-0.001843 0.00424,-0.001843 0.00571,-0.005344 0.00166,-0.003501 0.00166,-0.0163995 v -0.0543579 h -0.093606 v 0.0543579 q 0,0.0128985 0.00111,0.016031 0.00184,0.004607 0.00571,0.006081 0.00387,0.001474 0.015662,0.001474 h 0.00866 v 0.035563 H 1.1682316 v -0.035563 h 0.00848 q 0.010687,0 0.014925,-0.001843 0.00424,-0.001843 0.00571,-0.005159 0.00166,-0.003317 0.00166,-0.0145569 V 0.59538116 q 0,-0.0130827 -0.00166,-0.0169523 -0.00147,-0.004054 -0.00479,-0.005896 -0.00332,-0.001843 -0.012898,-0.001843 h -0.011424 z" />
    <path
       id="path1201"
       style="fill:#ffffff;stroke-width:0.00943433"
       d="m 1.57177,0.53512678 h 0.057675 l 0.077207,0.19845251 q 0.00626,0.0158467 0.011056,0.019532 0.00498,0.003685 0.018058,0.003501 v 0.035563 H 1.6141508 v -0.035563 l 0.00737,-1.8427e-4 q 0.010134,0 0.014188,-0.00258 0.00405,-0.002764 0.00405,-0.006634 0,-0.003317 -0.0035,-0.0136356 l -0.00755,-0.0234015 h -0.078312 l -0.00958,0.0259812 q -0.00295,0.008292 -0.00295,0.0108716 0,0.002948 0.00203,0.005344 0.00221,0.002395 0.007,0.003501 0.00313,7.3706e-4 0.017321,7.3706e-4 v 0.035563 h -0.099503 v -0.035563 q 0.00958,0 0.014004,-0.001658 0.00442,-0.001658 0.00719,-0.004975 0.00295,-0.003317 0.00645,-0.0123457 z m -0.00792,0.13838239 h 0.05141 l -0.02506,-0.0707574 z" />
    <path
       id="path1203"
       style="fill:#ffffff;stroke-width:0.00943433"
       d="m 1.7506906,0.53512678 h 0.1044778 l 0.075364,0.14999103 v -0.0917636 q 0,-0.0117929 -0.00129,-0.0147411 -0.00184,-0.004422 -0.00498,-0.006081 -0.00313,-0.001843 -0.012161,-0.001843 h -0.01253 v -0.035563 h 0.1061361 v 0.035563 h -0.011793 q -0.00884,0 -0.012714,0.002027 -0.00369,0.002027 -0.00516,0.005528 -0.00147,0.003501 -0.00147,0.0151097 V 0.79217529 H 1.9216878 L 1.8262389,0.60275173 v 0.13248594 q 0,0.0114244 0.00129,0.0145569 0.00147,0.003132 0.00498,0.004975 0.00369,0.001843 0.01253,0.001843 h 0.012346 v 0.035563 h -0.106689 v -0.035563 h 0.011056 q 0.00921,0 0.01253,-0.001474 0.0035,-0.001658 0.00553,-0.005528 0.00203,-0.00387 0.00203,-0.0116086 V 0.5905903 q 0,-0.008476 -0.00184,-0.0123457 -0.00184,-0.004054 -0.00498,-0.005712 -0.00313,-0.001843 -0.010503,-0.001843 h -0.01382 z" />
  </g>
</svg>
